# Blender v3.1.2 OBJ File: 'chair & table.blend'
# www.blender.org
mtllib chair2.mtl
o Cube.005_Cube.011
v 0.999998 8.078452 4.100001
v 0.999998 10.078452 4.100001
v 6.999998 8.078452 4.099998
v 6.999998 10.078452 4.099998
v 1.000002 8.078452 11.900002
v 1.000002 10.078452 11.900002
v 7.000002 8.078452 11.899999
v 7.000002 10.078452 11.899999
v 7.000001 8.078452 11.041999
v 7.000001 8.078452 10.332199
v 6.999999 8.078452 5.667799
v 6.999999 8.078452 4.957998
v 6.999999 10.078452 4.957998
v 6.999999 10.078452 5.667799
v 7.000001 10.078452 10.332199
v 7.000001 10.078452 11.041999
v 0.999999 8.078452 4.958001
v 0.999999 8.078452 5.667801
v 1.000001 8.078452 10.332201
v 1.000001 8.078452 11.042002
v 1.000001 10.078452 11.042002
v 1.000001 10.078452 10.332201
v 0.999999 10.078452 5.667801
v 0.999999 10.078452 4.958001
v 6.339998 8.078452 4.099999
v 5.637998 8.078452 4.099999
v 2.361998 8.078452 4.100001
v 1.659998 8.078452 4.100001
v 1.659998 10.078452 4.100001
v 2.361999 10.078452 4.100001
v 5.637999 10.078452 4.099999
v 6.339998 10.078452 4.099999
v 1.660002 8.078452 11.900002
v 2.362002 8.078452 11.900001
v 5.638003 8.078452 11.900000
v 6.340002 8.078452 11.899999
v 6.340002 10.078452 11.899999
v 5.638002 10.078452 11.900000
v 2.362002 10.078452 11.900001
v 1.660002 10.078452 11.900002
v 6.340001 10.078452 11.041999
v 5.638001 10.078452 11.042000
v 2.362001 10.078452 11.042001
v 1.660001 10.078452 11.042002
v 6.340001 10.078452 10.332199
v 5.638001 10.078452 10.332199
v 2.362001 10.078452 10.332201
v 1.660001 10.078452 10.332201
v 6.339999 10.078452 5.667799
v 5.637999 10.078452 5.667799
v 2.361999 10.078452 5.667801
v 1.659998 10.078452 5.667801
v 6.339998 10.078452 4.957999
v 5.637999 10.078452 4.957999
v 2.361998 10.078452 4.958001
v 1.659998 10.078452 4.958001
v 6.339998 8.078452 4.957999
v 5.637999 8.078452 4.957999
v 2.361998 8.078452 4.958001
v 1.659998 8.078452 4.958001
v 6.339999 8.078452 5.667799
v 5.637999 8.078452 5.667799
v 2.361999 8.078452 5.667801
v 1.659998 8.078452 5.667801
v 6.340001 8.078452 10.332199
v 5.638001 8.078452 10.332199
v 2.362001 8.078452 10.332201
v 1.660001 8.078452 10.332201
v 6.340001 8.078452 11.041999
v 5.638001 8.078452 11.042000
v 2.362001 8.078452 11.042001
v 1.660001 8.078452 11.042002
v 6.276214 3.027311 5.022492
v 5.701783 3.027311 5.022492
v 2.298214 3.027311 5.022494
v 1.723783 3.027311 5.022494
v 6.276215 3.027311 5.603306
v 5.701783 3.027311 5.603306
v 2.298214 3.027311 5.603308
v 1.723783 3.027311 5.603308
v 6.276217 3.027311 10.396692
v 5.701786 3.027311 10.396692
v 2.298217 3.027311 10.396694
v 1.723785 3.027311 10.396694
v 6.276217 3.027311 10.977506
v 5.701786 3.027311 10.977507
v 2.298217 3.027311 10.977508
v 1.723785 3.027311 10.977509
v 6.276214 2.027311 5.022492
v 5.701783 2.027311 5.022492
v 2.298214 2.027311 5.022494
v 1.723783 2.027311 5.022494
v 6.276215 2.027311 5.603306
v 5.701783 2.027311 5.603306
v 2.298214 2.027311 5.603308
v 1.723783 2.027311 5.603308
v 6.276217 2.027311 10.396692
v 5.701786 2.027311 10.396692
v 2.298217 2.027311 10.396694
v 1.723785 2.027311 10.396694
v 6.276217 2.027311 10.977506
v 5.701786 2.027311 10.977507
v 2.298217 2.027311 10.977508
v 1.723785 2.027311 10.977509
v 7.000001 18.947918 11.041999
v 7.000002 18.947918 11.899999
v 1.660002 18.947918 11.900002
v 1.000002 18.947918 11.900002
v 1.000001 18.947918 11.042002
v 1.660001 18.947918 11.042002
v 6.340002 18.947918 11.899999
v 5.638002 18.947918 11.900000
v 2.362002 18.947918 11.900001
v 6.340001 18.947918 11.041999
v 5.638001 18.947918 11.042000
v 2.362001 18.947918 11.042001
v 1.894001 17.469673 11.042001
v 1.894001 11.556696 11.042001
v 1.300001 11.556696 11.042002
v 1.300001 17.469673 11.042002
v 5.474202 17.469673 11.042000
v 5.474202 11.556696 11.042000
v 2.525801 11.556696 11.042001
v 2.525801 17.469673 11.042001
v 2.525802 11.556696 11.900001
v 2.525802 17.469673 11.900001
v 1.894001 17.469673 11.900001
v 1.894001 11.556696 11.900001
v 1.300002 17.469673 11.900002
v 1.300002 11.556696 11.900002
v 6.700002 11.556696 11.899999
v 6.700002 17.469673 11.899999
v 6.106002 17.469673 11.899999
v 6.106002 11.556696 11.899999
v 6.700002 11.556696 11.041999
v 6.700002 17.469673 11.041999
v 6.106001 11.556696 11.041999
v 6.106001 17.469673 11.041999
v 5.474202 17.469673 11.900000
v 5.474202 11.556696 11.900000
vt 0.500971 0.509566
vt 0.627927 0.383127
vt 0.627927 0.508016
vt 0.249810 0.874440
vt 0.120756 1.001550
vt 0.122709 0.874440
vt 0.815998 0.552007
vt 1.000000 0.491286
vt 1.000000 0.552007
vt 0.000000 1.000000
vt 0.001953 0.872890
vt 0.121971 0.124541
vt 0.883602 0.056676
vt 0.883602 0.127641
vt 0.325000 0.700000
vt 0.375000 0.750000
vt 0.325000 0.750000
vt 0.121971 0.003029
vt 0.000000 0.050998
vt 0.000000 0.000001
vt 0.627927 0.625361
vt 0.502924 0.875990
vt 0.500971 0.626911
vt 0.175000 0.750000
vt 0.125000 0.700000
vt 0.175000 0.700000
vt 0.225000 0.750000
vt 0.225000 0.700000
vt 0.275000 0.750000
vt 0.275000 0.700000
vt 0.128109 0.000000
vt 0.000974 0.131833
vt 0.000974 0.001953
vt 0.000615 0.876658
vt 0.123406 0.998985
vt 0.000000 1.000000
vt 0.000000 0.749875
vt 0.124021 0.998438
vt 0.000000 0.994532
vt 0.000000 0.867854
vt 0.124997 0.997301
vt 0.000000 0.996324
vt -0.001550 0.501299
vt 0.124021 0.632067
vt 0.000000 0.628160
vt -0.003100 0.372591
vt 0.122471 0.505206
vt -0.003100 0.246524
vt 0.120921 0.376497
vt 0.000000 0.125566
vt 0.120921 0.250430
vt 0.325000 0.550000
vt 0.275000 0.500000
vt 0.325000 0.500000
vt 0.247857 0.625361
vt 0.120756 0.625361
vt 0.002293 0.253228
vt 0.125850 1.000726
vt 0.001479 0.997886
vt 0.000000 0.623810
vt 0.375562 0.248587
vt 0.500731 0.997925
vt 0.378394 0.998359
vt 0.275000 0.600000
vt 0.225000 0.550000
vt 0.275000 0.550000
vt 0.275000 0.650000
vt 0.225000 0.600000
vt 0.225000 0.650000
vt 0.175000 0.500000
vt 0.225000 0.500000
vt 0.375420 0.625361
vt 0.375420 0.508016
vt 0.128401 0.248309
vt 0.248945 0.996395
vt 0.247857 0.508016
vt 0.879163 0.249549
vt 0.755547 0.998561
vt 0.875840 1.000726
vt 0.175000 0.600000
vt 0.125000 0.550000
vt 0.175000 0.550000
vt 0.175000 0.650000
vt 0.125000 0.600000
vt 0.125000 0.650000
vt 0.120756 0.508016
vt 0.000000 0.506466
vt 0.815998 0.000000
vt 1.000000 0.060721
vt 0.815998 0.060721
vt 0.125000 0.500000
vt 0.325000 0.650000
vt 0.325000 0.600000
vt 0.629880 0.874440
vt 0.500971 1.003100
vt 0.377373 0.874440
vt 0.000977 0.748531
vt 0.124021 0.871760
vt 0.631575 0.204081
vt 0.746699 0.002670
vt 0.748652 0.202127
vt 0.136000 0.082250
vt 0.679997 0.027600
vt 0.679997 0.082249
vt 0.123522 0.448862
vt 0.000000 0.395648
vt 0.118600 0.370515
vt 0.135999 0.027602
vt 0.000000 0.060722
vt 0.000000 0.000002
vt 0.136000 0.140376
vt 0.000000 0.426701
vt 0.000000 0.125306
vt 0.136000 0.469757
vt 0.679998 0.411631
vt 0.679997 0.469757
vt 0.375000 0.600000
vt 0.375000 0.650000
vt 0.375000 0.700000
vt 0.815998 0.125306
vt 1.000000 0.125306
vt 0.375420 0.383127
vt 0.754096 0.253707
vt 0.247857 0.383127
vt 0.002930 0.876472
vt 0.125974 0.998531
vt 0.000000 0.999508
vt 0.123044 0.749370
vt 0.126951 0.880378
vt 0.500971 0.384677
vt 0.001550 0.623798
vt 0.124021 0.502488
vt 0.125571 0.627705
vt 0.000000 0.498582
vt 0.125571 0.382485
vt 0.003674 0.751665
vt 0.815998 0.426701
vt 1.000000 0.426701
vt 0.815998 0.491286
vt 0.136000 0.524405
vt 0.679997 0.524406
vt 0.008241 0.124700
vt 0.129307 0.246563
vt 0.006879 0.247768
vt 0.505320 0.125930
vt 0.629488 0.249016
vt 0.503957 0.249001
vt 0.253348 0.124700
vt 0.372318 0.247786
vt 0.251984 0.247771
vt 0.373235 0.249540
vt 0.499487 0.996406
vt 0.375851 1.000726
vt 0.374560 0.999825
vt 0.250730 0.997383
vt 0.624562 0.999825
vt 0.500731 0.997383
vt 0.633410 0.249310
vt 0.750733 0.997925
vt 0.625220 1.000097
vt 0.251224 0.247786
vt 0.249560 1.001778
vt 0.250608 0.246845
vt 0.125730 1.001840
vt 0.248945 1.002254
vt 0.498628 0.252922
vt 0.625853 1.000726
vt 0.505422 1.001778
vt 0.997823 0.127115
vt 0.878680 0.342536
vt 0.751743 0.249747
vt 0.875734 0.999811
vt 0.750733 0.997325
vt 0.877226 0.249322
vt 1.000726 0.997983
vt 0.876640 0.998561
vt 0.126479 0.999839
vt 0.000725 0.997373
vt 0.753959 0.255400
vt 0.754759 1.000726
vt 0.128405 0.124304
vt 0.251257 0.123660
vt 0.378346 0.001735
vt 0.377115 0.124891
vt 0.004463 0.122430
vt 0.130321 -0.000725
vt 0.129090 0.122430
vt 0.502927 0.122430
vt 0.378346 0.002724
vt 0.502731 0.002724
vt 0.129090 0.122430
vt 0.252488 0.000505
vt 0.251257 0.123660
vt 0.753102 0.126669
vt 0.876562 0.249057
vt 0.253556 0.122796
vt 0.127521 0.249552
vt 0.879162 0.125541
vt 0.746366 0.251275
vt 0.752500 0.125025
vt 0.627258 0.250540
vt 0.751053 0.253017
vt 0.248123 0.126051
vt 0.247318 0.253645
vt 0.130103 0.122873
vt 0.001448 0.256122
vt 0.378058 0.129890
vt 0.505698 0.250781
vt 0.377515 0.242728
vt 0.752355 0.123392
vt 0.753515 0.251010
vt 0.632675 0.125261
vt 0.752469 0.248320
vt 0.373236 0.125533
vt 0.502515 0.250540
vt 0.502332 0.125328
vt 0.632865 0.249540
vt 0.501527 0.252707
vt 0.876489 0.125267
vt 0.999608 0.248349
vt 0.675000 0.750000
vt 0.625000 0.700000
vt 0.675000 0.700000
vt 0.675000 0.550000
vt 0.625000 0.500000
vt 0.675000 0.500000
vt 0.675000 0.600000
vt 0.625000 0.550000
vt 0.675000 0.650000
vt 0.625000 0.600000
vt 0.625000 0.650000
vt 0.121971 0.053576
vt 0.000000 0.105239
vt 0.123522 0.494759
vt 0.000000 0.449890
vt 0.749555 0.998573
vt 0.634432 0.798040
vt 0.751508 0.796087
vt 0.997823 0.370770
vt 0.883602 0.413501
vt 0.754080 1.004959
vt 0.628725 0.807205
vt 0.754079 0.809666
vt 0.136000 0.411631
vt 0.679998 0.140376
vt 0.754079 0.202677
vt 0.626264 -0.002461
vt 0.751619 0.000000
vt 0.120756 0.383127
vt 0.000000 0.381576
vt 0.375000 0.550000
vt 0.375000 0.500000
vt 0.628725 0.200216
vt 0.997823 0.055647
vt 0.883602 -0.001623
vt 0.751509 0.204440
vt 0.636384 0.003906
vt 0.753462 0.001953
vt 0.634431 0.206393
vt 0.997823 0.000000
vt 0.883602 0.481545
vt 0.997823 0.432666
vt 0.000000 0.491285
vt 0.247857 1.001550
vt 0.375420 1.001550
vt 0.125000 0.750000
vt 0.122249 0.127927
vt 0.124636 0.875027
vt 0.124796 0.751456
vt 0.124021 0.129472
vt 1.000000 0.000000
vt 0.627927 1.001550
vt 0.124021 0.749508
vt 0.629622 0.004623
vt 0.750734 0.995905
vt 0.001550 0.378579
vt 0.630292 0.125328
vt 0.373123 0.124098
vt 0.127513 0.249045
vt 0.252488 0.000505
vt 0.005693 -0.000725
vt 0.377115 0.124891
vt 0.130321 -0.000725
vt 0.877355 0.125346
vt 0.122388 0.125979
vt 0.753442 0.121361
vt 0.628983 0.127722
vt 0.001855 0.123095
vt 0.505972 0.124700
vt 0.751464 0.124700
vt 0.503058 0.124031
vt 0.632867 0.125533
vt 0.998611 0.124716
vt 0.625000 0.750000
vt 0.000000 0.493136
vt 0.632479 1.000526
vt 0.628725 1.002499
vt 0.997823 0.482112
vt 0.000000 0.552006
vn 0.0000 1.0000 -0.0000
vn 0.0000 0.0000 1.0000
vn 0.0000 0.0000 -1.0000
vn 0.0000 -1.0000 0.0000
vn -1.0000 0.0000 0.0000
vn 1.0000 0.0000 -0.0000
vn 0.0000 -0.0128 0.9999
vn -0.9999 -0.0126 0.0000
vn 0.9999 -0.0126 -0.0000
vn 0.0000 -0.0128 -0.9999
vn 0.9800 -0.1989 0.0000
vn -0.9800 -0.1989 0.0000
vn -0.9800 0.1989 0.0000
vn 0.9800 0.1989 -0.0000
g Cube.005_Cube.011_Material.003
usemtl Material.003
s off
f 56/1/1 2/2/1 24/3/1
f 46/4/1 41/5/1 45/6/1
f 8/7/2 36/8/2 7/9/2
f 45/6/1 16/10/1 15/11/1
f 121/12/3 137/13/3 122/14/3
f 72/15/4 5/16/4 20/17/4
f 136/18/3 114/19/3 105/20/3
f 23/21/1 48/22/1 52/23/1
f 24/3/1 52/23/1 56/1/1
f 17/24/4 28/25/4 60/26/4
f 18/27/4 60/26/4 64/28/4
f 19/29/4 64/28/4 68/30/4
f 20/17/4 68/30/4 72/15/4
f 21/31/5 5/32/5 6/33/5
f 22/34/5 20/35/5 21/36/5
f 23/37/5 19/38/5 22/39/5
f 24/40/5 18/41/5 23/42/5
f 13/43/6 3/44/6 4/45/6
f 14/46/6 12/47/6 13/43/6
f 15/48/6 11/49/6 14/46/6
f 16/50/6 10/51/6 15/48/6
f 69/52/4 10/53/4 9/54/4
f 50/55/1 45/6/1 49/56/1
f 80/57/7 63/58/7 64/59/7
f 49/56/1 15/11/1 14/60/1
f 84/61/8 72/62/8 68/63/8
f 66/64/4 61/65/4 65/66/4
f 67/67/4 62/68/4 66/64/4
f 68/30/4 63/69/4 67/67/4
f 61/65/4 12/70/4 11/71/4
f 56/1/1 51/72/1 55/73/1
f 79/74/9 59/75/9 63/58/9
f 55/73/1 50/55/1 54/76/1
f 82/77/8 70/78/8 66/79/8
f 58/80/4 25/81/4 57/82/4
f 59/83/4 26/84/4 58/80/4
f 60/26/4 27/85/4 59/83/4
f 53/86/1 14/60/1 13/87/1
f 54/76/1 49/56/1 53/86/1
f 6/88/2 33/89/2 40/90/2
f 57/82/4 3/91/4 12/70/4
f 63/69/4 58/80/4 62/68/4
f 65/66/4 11/71/4 10/53/4
f 71/92/4 66/64/4 70/93/4
f 22/94/1 44/95/1 48/22/1
f 51/72/1 46/4/1 50/55/1
f 52/23/1 47/96/1 51/72/1
f 2/97/5 17/98/5 24/40/5
f 8/99/6 9/100/6 16/101/6
f 127/102/2 130/103/2 128/104/2
f 40/90/2 130/103/2 6/88/2
f 117/105/3 116/106/3 124/107/3
f 129/108/2 107/109/2 108/110/2
f 126/111/2 112/112/2 113/113/2
f 133/114/2 140/115/2 134/116/2
f 69/52/4 35/117/4 70/93/4
f 70/93/4 34/118/4 71/92/4
f 71/92/4 33/119/4 72/15/4
f 39/120/2 33/89/2 34/121/2
f 54/76/1 30/122/1 55/73/1
f 66/79/10 81/123/10 82/77/10
f 53/86/1 31/124/1 54/76/1
f 29/125/3 1/126/3 2/127/3
f 29/125/3 27/128/3 28/129/3
f 55/73/1 29/130/1 56/1/1
f 31/131/3 25/132/3 26/133/3
f 32/134/3 3/135/3 25/132/3
f 30/136/3 26/133/3 27/128/3
f 38/137/2 34/121/2 35/138/2
f 37/139/2 35/138/2 36/8/2
f 132/140/2 134/116/2 131/141/2
f 92/142/5 80/143/5 76/144/5
f 89/145/3 74/146/3 73/147/3
f 104/148/2 87/149/2 88/150/2
f 83/151/10 68/152/10 67/153/10
f 88/150/7 71/154/7 72/155/7
f 73/147/10 58/156/10 57/157/10
f 77/158/9 57/159/9 61/160/9
f 87/161/9 67/153/9 71/162/9
f 75/163/10 60/164/10 59/165/10
f 74/166/8 62/167/8 58/168/8
f 42/169/3 123/170/3 122/14/3
f 85/171/9 65/172/9 69/173/9
f 86/174/7 69/175/7 70/176/7
f 76/144/8 64/177/8 60/178/8
f 78/179/7 61/160/7 62/180/7
f 95/181/6 75/163/6 79/74/6
f 102/182/4 97/183/4 101/184/4
f 104/185/4 99/186/4 103/187/4
f 94/188/4 89/189/4 93/190/4
f 96/191/4 91/192/4 95/193/4
f 101/194/6 81/195/6 85/171/6
f 91/196/3 76/197/3 75/163/3
f 98/198/5 86/199/5 82/77/5
f 94/200/2 77/201/2 78/202/2
f 103/203/6 83/151/6 87/204/6
f 96/205/2 79/206/2 80/143/2
f 100/207/5 88/208/5 84/209/5
f 97/210/3 82/77/3 81/211/3
f 93/212/6 73/213/6 77/158/6
f 99/214/3 84/215/3 83/151/3
f 90/216/5 78/217/5 74/218/5
f 102/219/2 85/220/2 86/174/2
f 109/221/1 107/222/1 110/223/1
f 114/224/1 106/225/1 105/226/1
f 115/227/1 111/228/1 114/224/1
f 116/229/1 112/230/1 115/227/1
f 110/223/1 113/231/1 116/229/1
f 38/137/2 134/116/2 140/115/2
f 138/232/3 115/233/3 114/19/3
f 120/234/3 110/235/3 117/105/3
f 105/236/11 132/237/11 136/238/11
f 43/239/3 118/240/3 123/170/3
f 121/12/3 116/106/3 115/233/3
f 108/241/12 120/242/12 129/243/12
f 139/244/2 125/245/2 140/115/2
f 130/246/13 21/247/13 6/248/13
f 39/120/2 128/104/2 40/90/2
f 32/249/1 13/87/1 4/250/1
f 133/114/2 112/112/2 139/244/2
f 36/251/4 9/54/4 7/252/4
f 37/139/2 131/141/2 134/116/2
f 129/243/5 119/253/5 130/246/5
f 42/169/3 137/13/3 41/254/3
f 138/232/3 135/255/3 137/13/3
f 117/105/3 123/170/3 118/240/3
f 135/256/14 8/257/14 16/258/14
f 39/120/2 140/115/2 125/245/2
f 136/238/6 131/259/6 135/256/6
f 41/254/3 135/255/3 16/260/3
f 124/107/3 122/14/3 123/170/3
f 127/102/2 113/113/2 107/109/2
f 120/234/3 118/240/3 119/261/3
f 44/262/3 119/261/3 118/240/3
f 126/111/2 128/104/2 125/245/2
f 132/140/2 111/263/2 133/114/2
f 47/96/1 42/264/1 46/4/1
f 48/22/1 43/265/1 47/96/1
f 56/1/1 29/130/1 2/2/1
f 46/4/1 42/264/1 41/5/1
f 8/7/2 37/139/2 36/8/2
f 45/6/1 41/5/1 16/10/1
f 121/12/3 138/232/3 137/13/3
f 72/15/4 33/119/4 5/16/4
f 136/18/3 138/232/3 114/19/3
f 23/21/1 22/94/1 48/22/1
f 24/3/1 23/21/1 52/23/1
f 17/24/4 1/266/4 28/25/4
f 18/27/4 17/24/4 60/26/4
f 19/29/4 18/27/4 64/28/4
f 20/17/4 19/29/4 68/30/4
f 21/31/5 20/267/5 5/32/5
f 22/34/5 19/268/5 20/35/5
f 23/37/5 18/269/5 19/38/5
f 24/40/5 17/98/5 18/41/5
f 13/43/6 12/47/6 3/44/6
f 14/46/6 11/49/6 12/47/6
f 15/48/6 10/51/6 11/49/6
f 16/50/6 9/270/6 10/51/6
f 69/52/4 65/66/4 10/53/4
f 50/55/1 46/4/1 45/6/1
f 80/57/7 79/74/7 63/58/7
f 49/56/1 45/6/1 15/11/1
f 84/61/8 88/208/8 72/62/8
f 66/64/4 62/68/4 61/65/4
f 67/67/4 63/69/4 62/68/4
f 68/30/4 64/28/4 63/69/4
f 61/65/4 57/82/4 12/70/4
f 56/1/1 52/23/1 51/72/1
f 79/74/9 75/163/9 59/75/9
f 55/73/1 51/72/1 50/55/1
f 82/77/8 86/199/8 70/78/8
f 58/80/4 26/84/4 25/81/4
f 59/83/4 27/85/4 26/84/4
f 60/26/4 28/25/4 27/85/4
f 53/86/1 49/56/1 14/60/1
f 54/76/1 50/55/1 49/56/1
f 6/88/2 5/271/2 33/89/2
f 57/82/4 25/81/4 3/91/4
f 63/69/4 59/83/4 58/80/4
f 65/66/4 61/65/4 11/71/4
f 71/92/4 67/67/4 66/64/4
f 22/94/1 21/272/1 44/95/1
f 51/72/1 47/96/1 46/4/1
f 52/23/1 48/22/1 47/96/1
f 2/97/5 1/273/5 17/98/5
f 8/99/6 7/274/6 9/100/6
f 127/102/2 129/108/2 130/103/2
f 40/90/2 128/104/2 130/103/2
f 117/105/3 110/235/3 116/106/3
f 129/108/2 127/102/2 107/109/2
f 126/111/2 139/244/2 112/112/2
f 133/114/2 139/244/2 140/115/2
f 69/52/4 36/251/4 35/117/4
f 70/93/4 35/117/4 34/118/4
f 71/92/4 34/118/4 33/119/4
f 39/120/2 40/90/2 33/89/2
f 54/76/1 31/124/1 30/122/1
f 66/79/10 65/275/10 81/123/10
f 53/86/1 32/249/1 31/124/1
f 29/125/3 28/129/3 1/126/3
f 29/125/3 30/136/3 27/128/3
f 55/73/1 30/122/1 29/130/1
f 31/131/3 32/134/3 25/132/3
f 32/134/3 4/276/3 3/135/3
f 30/136/3 31/131/3 26/133/3
f 38/137/2 39/120/2 34/121/2
f 37/139/2 38/137/2 35/138/2
f 132/140/2 133/114/2 134/116/2
f 92/142/5 96/205/5 80/143/5
f 89/145/3 90/277/3 74/146/3
f 104/148/2 103/278/2 87/149/2
f 83/151/10 84/215/10 68/152/10
f 88/150/7 87/149/7 71/154/7
f 73/147/10 74/146/10 58/156/10
f 77/158/9 73/213/9 57/159/9
f 87/161/9 83/151/9 67/153/9
f 75/163/10 76/279/10 60/164/10
f 74/166/8 78/217/8 62/167/8
f 42/169/3 43/239/3 123/170/3
f 85/171/9 81/195/9 65/172/9
f 86/174/7 85/220/7 69/175/7
f 76/144/8 80/143/8 64/177/8
f 78/179/7 77/201/7 61/160/7
f 95/181/6 91/196/6 75/163/6
f 102/182/4 98/280/4 97/183/4
f 104/185/4 100/281/4 99/186/4
f 94/188/4 90/282/4 89/189/4
f 96/191/4 92/283/4 91/192/4
f 101/194/6 97/284/6 81/195/6
f 91/196/3 92/285/3 76/197/3
f 98/198/5 102/286/5 86/199/5
f 94/200/2 93/287/2 77/201/2
f 103/203/6 99/214/6 83/151/6
f 96/205/2 95/288/2 79/206/2
f 100/207/5 104/289/5 88/208/5
f 97/210/3 98/198/3 82/77/3
f 93/212/6 89/290/6 73/213/6
f 99/214/3 100/291/3 84/215/3
f 90/216/5 94/292/5 78/217/5
f 102/219/2 101/293/2 85/220/2
f 109/221/1 108/294/1 107/222/1
f 114/224/1 111/228/1 106/225/1
f 115/227/1 112/230/1 111/228/1
f 116/229/1 113/231/1 112/230/1
f 110/223/1 107/222/1 113/231/1
f 38/137/2 37/139/2 134/116/2
f 138/232/3 121/12/3 115/233/3
f 120/234/3 109/295/3 110/235/3
f 105/236/11 106/296/11 132/237/11
f 43/239/3 44/262/3 118/240/3
f 121/12/3 124/107/3 116/106/3
f 108/241/12 109/297/12 120/242/12
f 139/244/2 126/111/2 125/245/2
f 130/246/13 119/253/13 21/247/13
f 39/120/2 125/245/2 128/104/2
f 32/249/1 53/86/1 13/87/1
f 133/114/2 111/263/2 112/112/2
f 36/251/4 69/52/4 9/54/4
f 37/139/2 8/7/2 131/141/2
f 129/243/5 120/242/5 119/253/5
f 42/169/3 122/14/3 137/13/3
f 138/232/3 136/18/3 135/255/3
f 117/105/3 124/107/3 123/170/3
f 135/256/14 131/259/14 8/257/14
f 39/120/2 38/137/2 140/115/2
f 136/238/6 132/237/6 131/259/6
f 41/254/3 137/13/3 135/255/3
f 124/107/3 121/12/3 122/14/3
f 127/102/2 126/111/2 113/113/2
f 120/234/3 117/105/3 118/240/3
f 44/262/3 21/298/3 119/261/3
f 126/111/2 127/102/2 128/104/2
f 132/140/2 106/299/2 111/263/2
f 47/96/1 43/265/1 42/264/1
f 48/22/1 44/95/1 43/265/1
