# Blender v3.1.2 OBJ File: 'chair & table.blend'
# www.blender.org
mtllib floor.mtl
o Cube.007_Cube
v -66.206032 0.000000 -66.206032
v -66.206032 2.000000 -66.206032
v 66.206032 2.000000 66.206032
v 66.206032 0.000000 -66.206032
v -66.206032 0.000000 66.206032
v -66.206032 2.000000 66.206032
v 66.206032 0.000000 66.206032
v 66.206032 2.000000 -66.206032
vt 1.000000 0.375000
vt 0.000000 0.403888
vt 0.000000 0.375000
vt 1.000000 0.000000
vt 0.000000 0.044390
vt 0.000000 0.000000
vt 0.958711 0.000000
vt 1.000000 1.000000
vt 0.958711 1.000000
vt 0.250000 0.000000
vt 1.000000 1.000000
vt 0.250000 1.000000
vt 0.750000 1.000000
vt 0.000000 0.000000
vt 0.750000 0.000000
vt 0.049262 0.835335
vt 1.049262 0.778543
vt 1.049262 0.835334
vt 1.000000 0.403888
vt 1.000000 0.044390
vt 1.000000 0.000000
vt 0.000000 1.000000
vt 0.049262 0.778543
vn 0.0000 0.0000 -1.0000
vn -1.0000 0.0000 0.0000
vn 0.0000 0.0000 1.0000
vn 0.0000 -1.0000 0.0000
vn 0.0000 1.0000 0.0000
vn 1.0000 0.0000 0.0000
g Cube.007_Cube_Material.001
usemtl Material.001
s off
f 8/1/1 1/2/1 2/3/1
f 2/4/2 5/5/2 6/6/2
f 6/7/3 7/8/3 3/9/3
f 7/10/4 1/11/4 4/12/4
f 6/13/5 8/14/5 2/15/5
f 3/16/6 4/17/6 8/18/6
f 8/1/1 4/19/1 1/2/1
f 2/4/2 1/20/2 5/5/2
f 6/7/3 5/21/3 7/8/3
f 7/10/4 5/21/4 1/11/4
f 6/13/5 3/22/5 8/14/5
f 3/16/6 7/23/6 4/17/6
