# Blender v3.1.2 OBJ File: 'chair & table.blend'
# www.blender.org
mtllib table.mtl
o Cube_Cube.001
v -10.000000 12.000000 5.000000
v -10.000000 14.000000 5.000000
v -10.000000 12.000000 -5.000000
v -10.000000 14.000000 -5.000000
v 10.000000 12.000000 5.000000
v 10.000000 14.000000 5.000000
v 10.000000 12.000000 -5.000000
v 10.000000 14.000000 -5.000000
v 8.666666 12.000000 -5.000000
v -8.666668 12.000000 -5.000000
v -8.666666 14.000000 -5.000000
v 8.666668 14.000000 -5.000000
v -8.666666 12.000000 5.000000
v 8.666668 12.000000 5.000000
v 8.666666 14.000000 5.000000
v -8.666668 14.000000 5.000000
v -10.000000 12.000000 -3.666667
v -10.000000 12.000000 3.666667
v -10.000000 14.000000 3.666667
v -10.000000 14.000000 -3.666667
v 10.000000 12.000000 3.666667
v 10.000000 12.000000 -3.666667
v 10.000000 14.000000 -3.666667
v 10.000000 14.000000 3.666667
v 8.666667 14.000000 -3.666667
v 8.666666 14.000000 3.666667
v -8.666667 14.000000 -3.666667
v -8.666668 14.000000 3.666667
v -8.666667 12.000000 -3.666667
v -8.666666 12.000000 3.666667
v 8.666667 12.000000 -3.666667
v 8.666668 12.000000 3.666667
v -9.706667 2.000000 3.960000
v -9.706667 2.000000 4.706667
v -8.960001 2.000000 -4.706666
v -9.706667 2.000000 -4.706666
v 9.706667 2.000000 -3.960000
v 9.706667 2.000000 -4.706667
v 8.960001 2.000000 4.706667
v 9.706667 2.000000 4.706667
v 8.959999 2.000000 -4.706667
v -8.959999 2.000000 4.706667
v -8.959999 2.000000 3.960000
v 8.960001 2.000000 3.960000
v -9.706667 2.000000 -3.960000
v 9.706667 2.000000 3.960000
v -8.960000 2.000000 -3.960000
v 8.960000 2.000000 -3.960000
v -9.866667 3.000000 -3.800000
v -8.800000 3.000000 -3.800000
v -8.800001 3.000000 -4.866667
v -9.866667 3.000000 -4.866667
v -8.799999 3.000000 4.866667
v -8.799999 3.000000 3.800000
v -9.866667 3.000000 3.800000
v -9.866667 3.000000 4.866667
v 8.800001 3.000000 3.800000
v 8.800001 3.000000 4.866667
v 9.866667 3.000000 4.866667
v 9.866667 3.000000 3.800000
v 9.866667 3.000000 -3.800000
v 9.866667 3.000000 -4.866667
v 8.800000 3.000000 -3.800000
v 8.799999 3.000000 -4.866667
vt 0.878087 0.083307
vt 1.000000 0.416641
vt 0.878087 0.416641
vt 0.807820 0.874560
vt 0.686211 1.000044
vt 0.686211 0.874560
vt 0.044445 0.044445
vt 0.288889 0.000000
vt 0.288889 0.044444
vt 0.848409 0.872022
vt 0.893817 0.994496
vt 0.848409 0.994496
vt 0.422044 0.127593
vt 0.339395 -0.000664
vt 0.421928 0.003395
vt 0.044445 0.622222
vt 0.288889 0.622222
vt 0.255824 1.000000
vt 0.384498 0.955555
vt 0.384498 1.000000
vt 0.627527 0.002711
vt 0.510692 0.124334
vt 0.506345 0.003151
vt 0.262624 0.002726
vt 0.391710 0.124016
vt 0.264043 0.124545
vt 0.932195 0.521864
vt 0.992801 0.582470
vt 0.932195 0.582470
vt 0.013139 0.872022
vt 0.058547 0.994496
vt 0.013139 0.994496
vt 0.249543 0.991694
vt 0.142281 0.173748
vt 0.235041 0.179268
vt 0.935296 0.006201
vt 0.995902 0.131214
vt 0.935296 0.131214
vt 0.060606 0.000000
vt 0.060606 0.125014
vt 0.824743 0.998959
vt 0.698386 0.876478
vt 0.823968 0.876478
vt 0.044445 0.666667
vt 0.288889 0.666667
vt 0.625678 0.172924
vt 0.532983 0.080853
vt 0.607925 0.078165
vt 0.992801 0.931306
vt 0.932195 0.931306
vt 0.333334 0.044444
vt 0.333334 0.622222
vt 0.641092 0.997899
vt 0.516558 0.872720
vt 0.641092 0.871489
vt 0.000000 0.000000
vt 0.000000 0.125014
vt 0.878087 0.477247
vt 1.000000 0.477247
vt 0.992801 0.991912
vt 0.932195 0.991912
vt 0.012402 0.991911
vt 0.073008 0.931305
vt 0.073008 0.991911
vt 0.157310 0.013605
vt 0.012402 0.582470
vt 0.012402 0.931305
vt 0.255824 0.556091
vt 0.384498 0.511647
vt 0.384498 0.556091
vt 0.073008 0.582470
vt 1.000000 0.022701
vt 1.000000 0.083307
vt 0.012402 0.521864
vt 0.255824 0.955555
vt 0.000000 0.622222
vt 0.058547 0.872022
vt 0.280242 0.015264
vt 0.364685 0.142344
vt 0.272150 0.142158
vt 0.010422 0.120277
vt 0.143893 -0.000542
vt 0.142916 0.120382
vt 0.141433 0.001919
vt 0.144146 0.122842
vt 0.625273 0.122672
vt 0.521417 0.002364
vt 0.609074 0.000044
vt 0.521779 0.124462
vt 0.242560 0.000044
vt 0.321843 0.124724
vt 0.216933 0.123975
vt 0.575760 -0.000013
vt 0.700305 0.126034
vt 0.577534 0.126503
vt 0.327773 0.002450
vt 0.452271 0.122700
vt 0.324463 0.125736
vt 0.022560 0.011427
vt 0.116890 0.142498
vt 0.019271 0.141987
vt 0.199194 0.002515
vt 0.197873 0.121700
vt 0.453304 0.001484
vt 0.554706 0.997992
vt 0.417554 1.000044
vt 0.329853 0.999489
vt 0.198508 0.998822
vt 0.392412 0.001306
vt 0.517951 0.124076
vt 0.697071 1.000224
vt 0.574597 0.999587
vt 0.448224 1.000308
vt 0.377271 0.998182
vt 0.249543 0.997553
vt 0.141000 0.999446
vt 0.011652 0.122738
vt 0.122042 0.999618
vt 0.000000 1.001394
vt 0.280656 0.996584
vt 0.623013 0.997539
vt 0.506543 0.171133
vt 0.684258 0.998955
vt 0.149483 0.988535
vt 0.513592 0.998317
vt 0.394915 0.998103
vt 0.265772 0.998377
vt 0.073008 0.521864
vt 0.807820 1.000044
vt 0.044445 0.000000
vt 0.893817 0.872022
vt 0.631874 0.123893
vt 0.992801 0.521864
vt 0.122042 0.989852
vt 0.995902 0.006201
vt 0.699161 0.998959
vt 0.516558 0.999129
vt 0.220337 0.014636
vt 0.255824 0.511647
vt 0.878087 0.022701
vt 0.000000 0.044445
vt 0.355515 0.016732
vt 0.012630 -0.002400
vt 0.699955 -0.000668
vt 0.099248 0.006429
vt 0.515015 0.000061
vt 0.015964 0.996357
vt 0.500310 0.995722
vn 1.0000 0.0000 0.0000
vn 0.0000 -1.0000 0.0000
vn 0.0000 0.0000 -1.0000
vn -0.9874 -0.1580 0.0000
vn -1.0000 0.0000 0.0000
vn 0.0000 1.0000 0.0000
vn 0.9999 -0.0148 0.0000
vn 0.0000 0.0000 1.0000
vn 0.9874 -0.1580 0.0000
vn 0.0000 -0.1580 -0.9874
vn 0.0000 -0.1580 0.9874
vn 0.0000 -0.0148 0.9999
vn -0.9999 -0.0148 0.0000
vn 0.0000 -0.0148 -0.9999
g Cube_Cube.001_Material.002
usemtl Material.002
s off
f 24/1/1 22/2/1 23/3/1
f 38/4/2 48/5/2 41/6/2
f 30/7/2 17/8/2 29/9/2
f 12/10/3 7/11/3 9/12/3
f 63/13/4 41/14/4 48/15/4
f 32/16/2 29/9/2 31/17/2
f 2/18/5 18/19/5 1/20/5
f 42/21/2 33/22/2 43/23/2
f 44/24/4 58/25/4 57/26/4
f 15/27/6 24/28/6 26/29/6
f 4/30/3 10/31/3 3/32/3
f 30/33/7 53/34/7 54/35/7
f 16/36/8 1/37/8 13/38/8
f 15/39/8 13/38/8 14/40/8
f 35/41/2 45/42/2 36/43/2
f 21/44/2 31/17/2 22/45/2
f 56/46/4 33/47/4 34/48/4
f 26/29/6 23/49/6 25/50/6
f 31/17/2 10/51/2 9/52/2
f 44/53/2 40/54/2 39/55/2
f 6/56/8 14/40/8 5/57/8
f 8/58/1 22/2/1 7/59/1
f 25/50/6 8/60/6 12/61/6
f 4/62/6 27/63/6 11/64/6
f 42/65/9 54/35/9 53/34/9
f 19/66/6 27/63/6 20/67/6
f 20/68/5 3/69/5 17/70/5
f 28/71/6 25/50/6 27/63/6
f 24/1/1 5/72/1 21/73/1
f 2/74/6 28/71/6 19/66/6
f 20/68/5 18/19/5 19/75/5
f 14/76/2 30/7/2 32/16/2
f 11/77/3 9/12/3 10/31/3
f 27/63/6 12/61/6 11/64/6
f 43/78/10 55/79/10 54/80/10
f 59/81/9 46/82/9 60/83/9
f 46/84/10 57/26/10 60/85/10
f 62/86/9 37/87/9 38/88/9
f 48/15/11 61/89/11 63/13/11
f 38/90/10 64/91/10 62/92/10
f 35/93/10 52/94/10 51/95/10
f 45/96/11 50/97/11 49/98/11
f 34/99/11 53/100/11 56/101/11
f 36/102/4 49/98/4 52/103/4
f 51/95/9 47/104/9 35/93/9
f 63/13/12 22/105/12 31/106/12
f 52/103/13 17/107/13 3/108/13
f 39/109/11 59/110/11 58/25/11
f 51/95/14 3/111/14 10/112/14
f 49/98/12 29/113/12 17/107/12
f 54/80/14 18/114/14 30/115/14
f 21/116/7 59/117/7 60/85/7
f 56/101/12 13/118/12 1/119/12
f 64/91/13 31/106/13 9/120/13
f 1/121/13 55/122/13 56/46/13
f 7/123/7 61/89/7 62/86/7
f 62/92/14 9/120/14 7/124/14
f 50/97/7 10/112/7 29/113/7
f 58/25/12 5/125/12 14/126/12
f 60/85/14 32/127/14 21/116/14
f 14/126/13 57/26/13 58/25/13
f 16/128/6 26/29/6 28/71/6
f 24/1/1 21/73/1 22/2/1
f 38/4/2 37/129/2 48/5/2
f 30/7/2 18/130/2 17/8/2
f 12/10/3 8/131/3 7/11/3
f 63/13/4 64/91/4 41/14/4
f 32/16/2 30/7/2 29/9/2
f 2/18/5 19/75/5 18/19/5
f 42/21/2 34/132/2 33/22/2
f 44/24/4 39/109/4 58/25/4
f 15/27/6 6/133/6 24/28/6
f 4/30/3 11/77/3 10/31/3
f 30/33/7 13/134/7 53/34/7
f 16/36/8 2/135/8 1/37/8
f 15/39/8 16/36/8 13/38/8
f 35/41/2 47/136/2 45/42/2
f 21/44/2 32/16/2 31/17/2
f 56/46/4 55/122/4 33/47/4
f 26/29/6 24/28/6 23/49/6
f 31/17/2 29/9/2 10/51/2
f 44/53/2 46/137/2 40/54/2
f 6/56/8 15/39/8 14/40/8
f 8/58/1 23/3/1 22/2/1
f 25/50/6 23/49/6 8/60/6
f 4/62/6 20/67/6 27/63/6
f 42/65/9 43/138/9 54/35/9
f 19/66/6 28/71/6 27/63/6
f 20/68/5 4/139/5 3/69/5
f 28/71/6 26/29/6 25/50/6
f 24/1/1 6/140/1 5/72/1
f 2/74/6 16/128/6 28/71/6
f 20/68/5 17/70/5 18/19/5
f 14/76/2 13/141/2 30/7/2
f 11/77/3 12/10/3 9/12/3
f 27/63/6 25/50/6 12/61/6
f 43/78/10 33/142/10 55/79/10
f 59/81/9 40/143/9 46/82/9
f 46/84/10 44/24/10 57/26/10
f 62/86/9 61/89/9 37/87/9
f 48/15/11 37/87/11 61/89/11
f 38/90/10 41/14/10 64/91/10
f 35/93/10 36/144/10 52/94/10
f 45/96/11 47/104/11 50/97/11
f 34/99/11 42/145/11 53/100/11
f 36/102/4 45/96/4 49/98/4
f 51/95/9 50/97/9 47/104/9
f 63/13/12 61/89/12 22/105/12
f 52/103/13 49/98/13 17/107/13
f 39/109/11 40/146/11 59/110/11
f 51/95/14 52/94/14 3/111/14
f 49/98/12 50/97/12 29/113/12
f 54/80/14 55/79/14 18/114/14
f 21/116/7 5/147/7 59/117/7
f 56/101/12 53/100/12 13/118/12
f 64/91/13 63/13/13 31/106/13
f 1/121/13 18/148/13 55/122/13
f 7/123/7 22/105/7 61/89/7
f 62/92/14 64/91/14 9/120/14
f 50/97/7 51/95/7 10/112/7
f 58/25/12 59/110/12 5/125/12
f 60/85/14 57/26/14 32/127/14
f 14/126/13 32/127/13 57/26/13
f 16/128/6 15/27/6 26/29/6
